<mxfile host="Electron" modified="2024-02-06T07:22:59.265Z" agent="Mozilla/5.0 (Windows NT 10.0; Win64; x64) AppleWebKit/537.36 (KHTML, like Gecko) draw.io/23.0.2 Chrome/120.0.6099.109 Electron/28.1.0 Safari/537.36" etag="nxOslOg7KrNZlVmKl4pb" version="23.0.2" type="device" pages="3">
  <diagram name="index home" id="TwugZSBYfs8F28ncjngg">
    <mxGraphModel dx="850" dy="542" grid="1" gridSize="10" guides="1" tooltips="1" connect="1" arrows="1" fold="1" page="1" pageScale="1" pageWidth="850" pageHeight="1100" math="0" shadow="0">
      <root>
        <mxCell id="0" />
        <mxCell id="1" parent="0" />
        <mxCell id="iQCjz6nacZ9eVYwap3GU-1" value="" style="whiteSpace=wrap;html=1;aspect=fixed;" vertex="1" parent="1">
          <mxGeometry x="150" y="60" width="580" height="580" as="geometry" />
        </mxCell>
        <mxCell id="iQCjz6nacZ9eVYwap3GU-2" value="Logo" style="text;strokeColor=none;fillColor=none;html=1;fontSize=24;fontStyle=1;verticalAlign=middle;align=center;" vertex="1" parent="1">
          <mxGeometry x="169" y="70" width="120" height="70" as="geometry" />
        </mxCell>
        <mxCell id="iQCjz6nacZ9eVYwap3GU-5" value="" style="endArrow=block;startArrow=block;endFill=1;startFill=1;html=1;rounded=0;entryX=0.98;entryY=0.163;entryDx=0;entryDy=0;entryPerimeter=0;exitX=0.017;exitY=0.169;exitDx=0;exitDy=0;exitPerimeter=0;" edge="1" parent="1">
          <mxGeometry width="160" relative="1" as="geometry">
            <mxPoint x="191.86" y="158.01999999999998" as="sourcePoint" />
            <mxPoint x="702.2" y="157.87" as="targetPoint" />
          </mxGeometry>
        </mxCell>
        <mxCell id="iQCjz6nacZ9eVYwap3GU-6" value="Page Title" style="text;html=1;strokeColor=none;fillColor=none;align=center;verticalAlign=middle;whiteSpace=wrap;rounded=0;" vertex="1" parent="1">
          <mxGeometry x="300" y="91" width="309" height="30" as="geometry" />
        </mxCell>
        <mxCell id="iQCjz6nacZ9eVYwap3GU-8" value="&lt;a href=&quot;data:page/id,TwugZSBYfs8F28ncjngg&quot;&gt;HOME&lt;/a&gt;" style="text;html=1;strokeColor=none;fillColor=none;align=center;verticalAlign=middle;whiteSpace=wrap;rounded=0;" vertex="1" parent="1">
          <mxGeometry x="314" y="130" width="60" height="30" as="geometry" />
        </mxCell>
        <mxCell id="iQCjz6nacZ9eVYwap3GU-9" value="&lt;a href=&quot;data:page/id,BgSbEB77CjOLGkaMeg5j&quot;&gt;ABOUT US&lt;/a&gt;" style="text;html=1;strokeColor=none;fillColor=none;align=center;verticalAlign=middle;whiteSpace=wrap;rounded=0;" vertex="1" parent="1">
          <mxGeometry x="404" y="130" width="66" height="30" as="geometry" />
        </mxCell>
        <mxCell id="iQCjz6nacZ9eVYwap3GU-10" value="&lt;a href=&quot;data:page/id,VS3m_5m4GWpuri-Xy_pb&quot;&gt;IMAGES&lt;/a&gt;" style="text;html=1;strokeColor=none;fillColor=none;align=center;verticalAlign=middle;whiteSpace=wrap;rounded=0;" vertex="1" parent="1">
          <mxGeometry x="506" y="130" width="60" height="30" as="geometry" />
        </mxCell>
        <mxCell id="iQCjz6nacZ9eVYwap3GU-11" value="" style="rounded=0;whiteSpace=wrap;html=1;" vertex="1" parent="1">
          <mxGeometry x="170" y="180" width="550" height="60" as="geometry" />
        </mxCell>
        <mxCell id="9qw8c8VxvNc0lpfrK3QM-1" value="&lt;h2&gt;HOME&lt;/h2&gt;" style="text;html=1;strokeColor=none;fillColor=none;align=center;verticalAlign=middle;whiteSpace=wrap;rounded=0;" vertex="1" parent="1">
          <mxGeometry x="143" y="250" width="110" height="60" as="geometry" />
        </mxCell>
        <mxCell id="9qw8c8VxvNc0lpfrK3QM-2" value="&lt;h1&gt;WELCOME&lt;/h1&gt;&lt;p&gt;Lorem ipsum dolor sit amet, consectetur adipisicing elit, sed do eiusmod tempor incididunt ut labore et dolore magna aliqua.&lt;/p&gt;" style="text;html=1;strokeColor=none;fillColor=none;spacing=5;spacingTop=-20;whiteSpace=wrap;overflow=hidden;rounded=0;" vertex="1" parent="1">
          <mxGeometry x="170" y="317" width="490" height="270" as="geometry" />
        </mxCell>
      </root>
    </mxGraphModel>
  </diagram>
  <diagram id="BgSbEB77CjOLGkaMeg5j" name="About us">
    <mxGraphModel dx="850" dy="542" grid="1" gridSize="10" guides="1" tooltips="1" connect="1" arrows="1" fold="1" page="1" pageScale="1" pageWidth="850" pageHeight="1100" math="0" shadow="0">
      <root>
        <mxCell id="0" />
        <mxCell id="1" parent="0" />
        <mxCell id="T9djfFvylKgX7dIslYpY-1" value="" style="whiteSpace=wrap;html=1;aspect=fixed;" vertex="1" parent="1">
          <mxGeometry x="150" y="60" width="580" height="580" as="geometry" />
        </mxCell>
        <mxCell id="T9djfFvylKgX7dIslYpY-2" value="Logo" style="text;strokeColor=none;fillColor=none;html=1;fontSize=24;fontStyle=1;verticalAlign=middle;align=center;" vertex="1" parent="1">
          <mxGeometry x="169" y="70" width="120" height="70" as="geometry" />
        </mxCell>
        <mxCell id="T9djfFvylKgX7dIslYpY-3" value="" style="endArrow=block;startArrow=block;endFill=1;startFill=1;html=1;rounded=0;entryX=0.98;entryY=0.163;entryDx=0;entryDy=0;entryPerimeter=0;exitX=0.017;exitY=0.169;exitDx=0;exitDy=0;exitPerimeter=0;" edge="1" parent="1">
          <mxGeometry width="160" relative="1" as="geometry">
            <mxPoint x="184.86" y="162.01999999999998" as="sourcePoint" />
            <mxPoint x="695.2" y="161.87" as="targetPoint" />
          </mxGeometry>
        </mxCell>
        <mxCell id="T9djfFvylKgX7dIslYpY-4" value="Page Title" style="text;html=1;strokeColor=none;fillColor=none;align=center;verticalAlign=middle;whiteSpace=wrap;rounded=0;" vertex="1" parent="1">
          <mxGeometry x="300" y="91" width="309" height="30" as="geometry" />
        </mxCell>
        <mxCell id="T9djfFvylKgX7dIslYpY-5" value="&lt;a href=&quot;null&quot;&gt;HOME&lt;/a&gt;" style="text;html=1;strokeColor=none;fillColor=none;align=center;verticalAlign=middle;whiteSpace=wrap;rounded=0;" vertex="1" parent="1">
          <mxGeometry x="314" y="130" width="60" height="30" as="geometry" />
        </mxCell>
        <mxCell id="T9djfFvylKgX7dIslYpY-6" value="&lt;a href=&quot;null&quot;&gt;ABOUT US&lt;/a&gt;" style="text;html=1;strokeColor=none;fillColor=none;align=center;verticalAlign=middle;whiteSpace=wrap;rounded=0;" vertex="1" parent="1">
          <mxGeometry x="404" y="130" width="66" height="30" as="geometry" />
        </mxCell>
        <mxCell id="T9djfFvylKgX7dIslYpY-7" value="&lt;a href=&quot;null&quot;&gt;IMAGES&lt;/a&gt;" style="text;html=1;strokeColor=none;fillColor=none;align=center;verticalAlign=middle;whiteSpace=wrap;rounded=0;" vertex="1" parent="1">
          <mxGeometry x="506" y="130" width="60" height="30" as="geometry" />
        </mxCell>
        <mxCell id="T9djfFvylKgX7dIslYpY-8" value="" style="rounded=0;whiteSpace=wrap;html=1;" vertex="1" parent="1">
          <mxGeometry x="170" y="180" width="550" height="60" as="geometry" />
        </mxCell>
        <mxCell id="T9djfFvylKgX7dIslYpY-10" value="&lt;h1&gt;ABOUT US&lt;/h1&gt;&lt;p&gt;Lorem ipsum dolor sit amet, consectetur adipisicing elit, sed do eiusmod tempor incididunt ut labore et dolore magna aliqua.&lt;/p&gt;&lt;p&gt;Lorem ipsum dolor sit amet, consectetur adipisicing elit, sed do eiusmod tempor incididunt ut labore et dolore magna aliqua.&lt;br&gt;&lt;/p&gt;&lt;p&gt;Lorem ipsum dolor sit amet, consectetur adipisicing elit, sed do eiusmod tempor incididunt ut labore et dolore magna aliqua.&lt;br&gt;&lt;/p&gt;" style="text;html=1;strokeColor=none;fillColor=none;spacing=5;spacingTop=-20;whiteSpace=wrap;overflow=hidden;rounded=0;" vertex="1" parent="1">
          <mxGeometry x="192" y="280" width="490" height="270" as="geometry" />
        </mxCell>
      </root>
    </mxGraphModel>
  </diagram>
  <diagram id="VS3m_5m4GWpuri-Xy_pb" name="Images">
    <mxGraphModel dx="850" dy="542" grid="1" gridSize="10" guides="1" tooltips="1" connect="1" arrows="1" fold="1" page="1" pageScale="1" pageWidth="850" pageHeight="1100" math="0" shadow="0">
      <root>
        <mxCell id="0" />
        <mxCell id="1" parent="0" />
        <mxCell id="7jnT0z8d6o-454RAxmfU-1" value="" style="whiteSpace=wrap;html=1;aspect=fixed;" vertex="1" parent="1">
          <mxGeometry x="150" y="60" width="630" height="630" as="geometry" />
        </mxCell>
        <mxCell id="7jnT0z8d6o-454RAxmfU-2" value="Logo" style="text;strokeColor=none;fillColor=none;html=1;fontSize=24;fontStyle=1;verticalAlign=middle;align=center;" vertex="1" parent="1">
          <mxGeometry x="169" y="70" width="120" height="70" as="geometry" />
        </mxCell>
        <mxCell id="7jnT0z8d6o-454RAxmfU-3" value="" style="endArrow=block;startArrow=block;endFill=1;startFill=1;html=1;rounded=0;entryX=0.98;entryY=0.163;entryDx=0;entryDy=0;entryPerimeter=0;exitX=0.017;exitY=0.169;exitDx=0;exitDy=0;exitPerimeter=0;" edge="1" parent="1">
          <mxGeometry width="160" relative="1" as="geometry">
            <mxPoint x="191.86" y="158.01999999999998" as="sourcePoint" />
            <mxPoint x="702.2" y="157.87" as="targetPoint" />
          </mxGeometry>
        </mxCell>
        <mxCell id="7jnT0z8d6o-454RAxmfU-4" value="Page Title" style="text;html=1;strokeColor=none;fillColor=none;align=center;verticalAlign=middle;whiteSpace=wrap;rounded=0;" vertex="1" parent="1">
          <mxGeometry x="300" y="91" width="309" height="30" as="geometry" />
        </mxCell>
        <mxCell id="7jnT0z8d6o-454RAxmfU-5" value="&lt;a href=&quot;null&quot;&gt;HOME&lt;/a&gt;" style="text;html=1;strokeColor=none;fillColor=none;align=center;verticalAlign=middle;whiteSpace=wrap;rounded=0;" vertex="1" parent="1">
          <mxGeometry x="314" y="130" width="60" height="30" as="geometry" />
        </mxCell>
        <mxCell id="7jnT0z8d6o-454RAxmfU-6" value="&lt;a href=&quot;null&quot;&gt;ABOUT US&lt;/a&gt;" style="text;html=1;strokeColor=none;fillColor=none;align=center;verticalAlign=middle;whiteSpace=wrap;rounded=0;" vertex="1" parent="1">
          <mxGeometry x="404" y="130" width="66" height="30" as="geometry" />
        </mxCell>
        <mxCell id="7jnT0z8d6o-454RAxmfU-7" value="&lt;a href=&quot;null&quot;&gt;IMAGES&lt;/a&gt;" style="text;html=1;strokeColor=none;fillColor=none;align=center;verticalAlign=middle;whiteSpace=wrap;rounded=0;" vertex="1" parent="1">
          <mxGeometry x="506" y="130" width="60" height="30" as="geometry" />
        </mxCell>
        <mxCell id="7jnT0z8d6o-454RAxmfU-8" value="" style="rounded=0;whiteSpace=wrap;html=1;" vertex="1" parent="1">
          <mxGeometry x="189" y="180" width="550" height="60" as="geometry" />
        </mxCell>
        <mxCell id="7jnT0z8d6o-454RAxmfU-9" value="&lt;h2&gt;IMAGES&lt;/h2&gt;" style="text;html=1;strokeColor=none;fillColor=none;align=center;verticalAlign=middle;whiteSpace=wrap;rounded=0;" vertex="1" parent="1">
          <mxGeometry x="179" y="258" width="110" height="60" as="geometry" />
        </mxCell>
        <mxCell id="7jnT0z8d6o-454RAxmfU-10" value="&lt;h1&gt;&lt;br&gt;&lt;/h1&gt;" style="text;html=1;strokeColor=none;fillColor=none;spacing=5;spacingTop=-20;whiteSpace=wrap;overflow=hidden;rounded=0;" vertex="1" parent="1">
          <mxGeometry x="170" y="310" width="600" height="360" as="geometry" />
        </mxCell>
        <mxCell id="7jnT0z8d6o-454RAxmfU-11" value="" style="line;strokeWidth=4;direction=south;html=1;perimeter=backbonePerimeter;points=[];outlineConnect=0;" vertex="1" parent="1">
          <mxGeometry x="466" y="325" width="10" height="320" as="geometry" />
        </mxCell>
        <mxCell id="7jnT0z8d6o-454RAxmfU-12" value="" style="line;strokeWidth=2;html=1;" vertex="1" parent="1">
          <mxGeometry x="190" y="483.5" width="560" height="10" as="geometry" />
        </mxCell>
        <mxCell id="7jnT0z8d6o-454RAxmfU-13" value="" style="line;strokeWidth=2;html=1;" vertex="1" parent="1">
          <mxGeometry x="190" y="640" width="564" height="10" as="geometry" />
        </mxCell>
        <mxCell id="7jnT0z8d6o-454RAxmfU-14" value="" style="line;strokeWidth=4;direction=south;html=1;perimeter=backbonePerimeter;points=[];outlineConnect=0;" vertex="1" parent="1">
          <mxGeometry x="186" y="327" width="10" height="320" as="geometry" />
        </mxCell>
        <mxCell id="7jnT0z8d6o-454RAxmfU-15" value="" style="line;strokeWidth=4;direction=south;html=1;perimeter=backbonePerimeter;points=[];outlineConnect=0;" vertex="1" parent="1">
          <mxGeometry x="750" y="326" width="10" height="320" as="geometry" />
        </mxCell>
        <mxCell id="7jnT0z8d6o-454RAxmfU-16" value="" style="line;strokeWidth=2;html=1;" vertex="1" parent="1">
          <mxGeometry x="192" y="318" width="564" height="10" as="geometry" />
        </mxCell>
      </root>
    </mxGraphModel>
  </diagram>
</mxfile>
